<svg xmlns="http://www.w3.org/2000/svg" xmlns:xlink="http://www.w3.org/1999/xlink" width="30" height="30" viewBox="0 0 30 30">
  <defs>
    <clipPath id="clip-Add_ons">
      <rect width="30" height="30"/>
    </clipPath>
  </defs>
  <g id="Add_ons" data-name="Add ons" clip-path="url(#clip-Add_ons)">
    <g id="shopping-cart" transform="translate(1 1)">
      <path id="Path_433" data-name="Path 433" d="M27.666,13.833A13.833,13.833,0,1,1,13.833,0,13.833,13.833,0,0,1,27.666,13.833Zm0,0" fill="#ffc200"/>
      <path id="Path_434" data-name="Path 434" d="M121.936,108.1l-6.389-6.389-1.859,1.859-.473-.473-3.565,3.564L102.688,99.7l-2.345.3-.686.686,2.639,2.6-.594,11.33,7.334,7.334a13.833,13.833,0,0,0,12.9-13.8C121.937,108.127,121.936,108.112,121.936,108.1Zm0,0" transform="translate(-94.271 -94.308)" fill="#ff9100"/>
      <path id="Path_435" data-name="Path 435" d="M146.668,172.934h12.376v7.987H146.668Zm0,0" transform="translate(-138.743 -163.589)" fill="#32ddf9"/>
      <path id="Path_436" data-name="Path 436" d="M256.609,172.934h6.436v7.987h-6.436Zm0,0" transform="translate(-242.744 -163.589)" fill="#00c0f1"/>
      <path id="Path_437" data-name="Path 437" d="M112.079,113.564v.99h-10.4V100.627H99.637v-.99h3.036v13.928Zm0,0" transform="translate(-94.253 -94.253)" fill="#575f64"/>
      <path id="Path_438" data-name="Path 438" d="M256.609,357.391h3.961v.99h-3.961Zm0,0" transform="translate(-242.744 -338.079)" fill="#32393f"/>
      <path id="Path_439" data-name="Path 439" d="M192.477,209.578h.99V213.6h-.99Zm0,0" transform="translate(-182.076 -198.254)" fill="#00c0f1"/>
      <path id="Path_440" data-name="Path 440" d="M247.449,209.578h.99V213.6h-.99Zm0,0" transform="translate(-234.078 -198.254)" fill="#00c0f1"/>
      <path id="Path_441" data-name="Path 441" d="M302.422,223.07h.99v3.3h-.99Zm0,0" transform="translate(-286.081 -211.017)" fill="#009ae4"/>
      <path id="Path_442" data-name="Path 442" d="M256.609,209.578h.5V213.6h-.5Zm0,0" transform="translate(-242.744 -198.254)" fill="#009ae4"/>
      <path id="Path_443" data-name="Path 443" d="M303.907,360.361a1.485,1.485,0,1,1,1.485-1.485A1.487,1.487,0,0,1,303.907,360.361Zm0,0" transform="translate(-286.081 -338.079)" fill="#32393f"/>
      <path id="Path_444" data-name="Path 444" d="M175.638,360.361a1.485,1.485,0,1,1,1.485-1.485A1.487,1.487,0,0,1,175.638,360.361Zm0,0" transform="translate(-164.742 -338.079)" fill="#575f64"/>
      <path id="Path_445" data-name="Path 445" d="M321.237,375.715a.5.5,0,1,0,.495.5A.5.5,0,0,0,321.237,375.715Zm0,0" transform="translate(-303.411 -355.413)" fill="#d8d8fc"/>
      <path id="Path_446" data-name="Path 446" d="M192.972,375.715a.5.5,0,1,0,.495.5A.5.5,0,0,0,192.972,375.715Zm0,0" transform="translate(-182.076 -355.413)" fill="#f2f2fc"/>
      <path id="Path_447" data-name="Path 447" d="M287.563,117.961a3.465,3.465,0,1,0,3.465,3.465A3.469,3.469,0,0,0,287.563,117.961Zm0,0" transform="translate(-268.747 -111.587)" fill="#7fe881"/>
      <path id="Path_448" data-name="Path 448" d="M351.7,121.426a3.469,3.469,0,0,1-3.465,3.465v-6.931A3.469,3.469,0,0,1,351.7,121.426Zm0,0" transform="translate(-329.414 -111.587)" fill="#5bc980"/>
      <path id="Path_449" data-name="Path 449" d="M323.713,155.6v.99h-.99v.99h-.99v-.99h-.99v-.99h.99v-.99h.99v.99Zm0,0" transform="translate(-303.411 -146.255)" fill="#f2f2fc"/>
      <path id="Path_450" data-name="Path 450" d="M349.716,155.6v.99h-.99v.99h-.495v-2.97h.495v.99Zm0,0" transform="translate(-329.414 -146.255)" fill="#d8d8fc"/>
    </g>
  </g>
</svg>
