<svg xmlns="http://www.w3.org/2000/svg" xmlns:xlink="http://www.w3.org/1999/xlink" width="30" height="30" viewBox="0 0 30 30">
  <defs>
    <clipPath id="clip-All_orders">
      <rect width="30" height="30"/>
    </clipPath>
  </defs>
  <g id="All_orders" data-name="All orders" clip-path="url(#clip-All_orders)">
    <g id="Group_278" data-name="Group 278" transform="translate(-444 -514.009)">
      <circle id="Ellipse_16" data-name="Ellipse 16" cx="13.69" cy="13.69" r="13.69" transform="translate(445 515.009)" fill="#ffc200"/>
      <path id="Path_383" data-name="Path 383" d="M129.188,115.5a13.835,13.835,0,0,0-.075-1.44l-5.676-5.677-3.335,1.588-1.1-1.123h-.777l-1.283-1.286-.93,1.23-1.2-1.23-.93,1.23-1.2-1.23-.93,1.23-1.2-1.23-2.991,15.876,5.543,5.543A13.7,13.7,0,0,0,129.188,115.5Z" transform="translate(343.192 413.2)" fill="#ff9500"/>
      <path id="Path_384" data-name="Path 384" d="M345.407,122.914v12.8l-1.393,2.257h-.549l-1.393-2.257v-12.8Z" transform="translate(121.22 398.667)" fill="#817c74"/>
      <path id="Path_385" data-name="Path 385" d="M374.924,122.914v12.8l-1.393,2.257h-.274V122.914Z" transform="translate(91.704 398.667)" fill="#332311"/>
      <rect id="Rectangle_73" data-name="Rectangle 73" width="11.442" height="14.59" transform="translate(450.752 522.047)" fill="#f0e7df"/>
      <rect id="Rectangle_74" data-name="Rectangle 74" width="5.721" height="14.59" transform="translate(456.473 522.047)" fill="#dfcdbd"/>
      <path id="Path_386" data-name="Path 386" d="M149.9,204.134l-1.011-1.209.714-.6.393.47.964-.864.621.693Z" transform="translate(304.069 323.872)" fill="#ff633d"/>
      <rect id="Rectangle_75" data-name="Rectangle 75" width="3.596" height="0.93" transform="translate(456.473 526.559)" fill="#a17852"/>
      <path id="Path_387" data-name="Path 387" d="M149.9,254.15l-1.011-1.209.714-.6.393.47.964-.864.621.693Z" transform="translate(304.069 276.531)" fill="#ff633d"/>
      <rect id="Rectangle_76" data-name="Rectangle 76" width="3.596" height="0.93" transform="translate(456.473 529.233)" fill="#a17852"/>
      <path id="Path_388" data-name="Path 388" d="M149.9,304.167l-1.011-1.209.714-.6.393.47.964-.864.621.693Z" transform="translate(304.069 229.188)" fill="#ff633d"/>
      <rect id="Rectangle_77" data-name="Rectangle 77" width="3.596" height="0.93" transform="translate(456.473 531.908)" fill="#a17852"/>
      <rect id="Rectangle_78" data-name="Rectangle 78" width="0.93" height="2.648" transform="translate(452.812 520.76)" fill="#bd9b7b"/>
      <rect id="Rectangle_79" data-name="Rectangle 79" width="0.93" height="2.648" transform="translate(454.943 520.76)" fill="#bd9b7b"/>
      <rect id="Rectangle_80" data-name="Rectangle 80" width="0.93" height="2.648" transform="translate(457.073 520.76)" fill="#a17852"/>
      <rect id="Rectangle_81" data-name="Rectangle 81" width="0.93" height="2.648" transform="translate(459.203 520.76)" fill="#a17852"/>
      <path id="Path_389" data-name="Path 389" d="M345.407,362.21h0l-1.393,2.257h-.549l-1.393-2.257h3.335Z" transform="translate(121.22 172.168)" fill="#ffc473"/>
      <rect id="Rectangle_82" data-name="Rectangle 82" width="3.335" height="2.93" transform="translate(463.292 521.581)" fill="#ff633d"/>
      <rect id="Rectangle_83" data-name="Rectangle 83" width="1.668" height="2.93" transform="translate(464.96 521.581)" fill="#e70021"/>
      <path id="Path_390" data-name="Path 390" d="M373.256,362.21h1.668l-1.393,2.257h-.274Z" transform="translate(91.704 172.168)" fill="#ffb74f"/>
      <g id="Group_252" data-name="Group 252" transform="translate(447.971 527.409)">
        <path id="Path_369" data-name="Path 369" d="M2,26.349l1.012,1.012,1.012-1.012H3.349V25H2.675v1.349Z" transform="translate(-2 -25)" fill="#8b4b62"/>
      </g>
      <g id="Group_253" data-name="Group 253" transform="translate(447.971 527.409)">
        <path id="Path_370" data-name="Path 370" d="M3.686,26.349H3.012V25H2.675v1.349H2l.843.843Z" transform="translate(-2 -25)" fill="#bb6f6b"/>
      </g>
      <g id="Group_274" data-name="Group 274" transform="translate(447.813 523.362)">
        <path id="Path_380" data-name="Path 380" d="M3.082,3.586l-.8-2.249h-.1l-.8,2.249-.318-.113L1.9,1.112A.169.169,0,0,1,2.06,1H2.4a.168.168,0,0,1,.159.112L3.4,3.473Z" transform="translate(-1.058 -1)"/>
      </g>
      <g id="Group_275" data-name="Group 275" transform="translate(448.309 524.711)">
        <rect id="Rectangle_72" data-name="Rectangle 72" width="1.349" height="0.337" transform="translate(0)"/>
      </g>
      <g id="Group_276" data-name="Group 276" transform="translate(447.803 531.119)">
        <path id="Path_381" data-name="Path 381" d="M3.193,49.7H1.169a.169.169,0,0,1-.128-.278l1.785-2.083H1.169V47H3.193a.169.169,0,0,1,.128.278L1.536,49.361H3.193Z" transform="translate(-1.001 -47)"/>
      </g>
      <g id="Group_277" data-name="Group 277" transform="translate(447.803 527.241)">
        <path id="Path_382" data-name="Path 382" d="M2.18,26.7a.168.168,0,0,1-.119-.049L1.049,25.637a.169.169,0,0,1,.119-.288h.506v-1.18A.169.169,0,0,1,1.843,24h.675a.169.169,0,0,1,.169.169v1.18h.506a.169.169,0,0,1,.119.288L2.3,26.649A.168.168,0,0,1,2.18,26.7Zm-.6-1.012.6.6.6-.6H2.518a.168.168,0,0,1-.169-.169v-1.18H2.012v1.18a.168.168,0,0,1-.169.169Z" transform="translate(-1 -24)"/>
      </g>
    </g>
  </g>
</svg>
