<svg xmlns="http://www.w3.org/2000/svg" xmlns:xlink="http://www.w3.org/1999/xlink" width="30" height="30" viewBox="0 0 30 30">
  <defs>
    <clipPath id="clip-drivers">
      <rect width="30" height="30"/>
    </clipPath>
  </defs>
  <g id="drivers" clip-path="url(#clip-drivers)">
    <g id="Group_50" data-name="Group 50" transform="translate(-323 -462)">
      <g id="Group_42" data-name="Group 42" transform="translate(324 463)">
        <g id="Group_10" data-name="Group 10">
          <g id="Group_9" data-name="Group 9">
            <g id="Group_8" data-name="Group 8">
              <g id="Group_7" data-name="Group 7">
                <g id="Group_6" data-name="Group 6">
                  <g id="Group_5" data-name="Group 5">
                    <g id="Group_4" data-name="Group 4">
                      <g id="Group_3" data-name="Group 3">
                        <g id="Group_2" data-name="Group 2">
                          <g id="Group_1" data-name="Group 1">
                            <circle id="Ellipse_1" data-name="Ellipse 1" cx="14.131" cy="14.131" r="14.131" fill="#ffc200"/>
                          </g>
                        </g>
                      </g>
                    </g>
                  </g>
                </g>
              </g>
            </g>
          </g>
        </g>
      </g>
      <path id="Path_161" data-name="Path 161" d="M83.98,184.742a14.069,14.069,0,0,0,13.534-13.3l-10.208-3.447-1.65,4.31,2.239,1.8-9.974,1.319Z" transform="translate(254.731 306.507)" fill="#ff9500"/>
      <g id="taxi-driver_1_" data-name="taxi-driver (1)" transform="translate(329.634 467.495)">
        <path id="Path_204" data-name="Path 204" d="M202.024,23.327a1.3,1.3,0,0,0,.005-2.276,8.65,8.65,0,0,0-4.219.3,1.307,1.307,0,0,0-.672,1.973Zm0,0" transform="translate(-189.676 -20.15)" fill="#898998"/>
        <path id="Path_205" data-name="Path 205" d="M216.372,134.348a2.924,2.924,0,0,0,2.243-2.843v-2.592l-2.3,1.374-2.186-.271v1.489A2.923,2.923,0,0,0,216.372,134.348Zm0,0" transform="translate(-206.257 -124.175)" fill="#fccb9d"/>
        <path id="Path_206" data-name="Path 206" d="M218.613,90.9h-4.484a2.3,2.3,0,1,0,4.484,0Zm0,0" transform="translate(-206.257 -87.56)" fill="#898998"/>
        <path id="Path_207" data-name="Path 207" d="M212.629,86.434h4.54V88h-4.54Zm0,0" transform="translate(-204.812 -83.256)" fill="#ffc66c"/>
        <path id="Path_208" data-name="Path 208" d="M336.423,131.267h-.294v-2.353h.294a1.176,1.176,0,0,1,0,2.353Zm0,0" transform="translate(-323.771 -124.175)" fill="#fccb9d"/>
        <path id="Path_209" data-name="Path 209" d="M136.794,131.267h.294v-2.353h-.294a1.176,1.176,0,1,0,0,2.353Zm0,0" transform="translate(-130.631 -124.175)" fill="#fccb9d"/>
        <path id="Path_210" data-name="Path 210" d="M190.863,312.234h4.613v6.974h-4.613Zm0,0" transform="translate(-183.846 -300.755)" fill="#fff"/>
        <path id="Path_211" data-name="Path 211" d="M214.475,268.385l-1.653.974-1.643-.974v-1.471h3.3Zm0,0" transform="translate(-203.416 -257.101)" fill="#fccb9d"/>
        <path id="Path_212" data-name="Path 212" d="M161.856,449.522a4.662,4.662,0,0,0-6.469,1.115h7.594A4.667,4.667,0,0,0,161.856,449.522Zm0,0" transform="translate(-149.674 -432.184)" fill="#898998"/>
        <path id="Path_213" data-name="Path 213" d="M321.3,324.719l-1.41-.383-.948,3.677.132.055a5.977,5.977,0,0,1,1.162.435l.721-.873-1.434-.864Zm0,0" transform="translate(-307.212 -312.412)" fill="#686c83"/>
        <path id="Path_214" data-name="Path 214" d="M70.424,280.4,65,278.98v-1.066H63.4v1.471l-5.423,1.42A2.643,2.643,0,0,0,56,283.361v2.789h2.079a6.018,6.018,0,0,1,6.778-3.143l.949-3.68,2.311.628-1.821,2.1,1.434.864-.835,1.011a6.042,6.042,0,0,1,1.928,2.224H72.4v-3.193A2.643,2.643,0,0,0,70.424,280.4Zm0,0" transform="translate(-53.941 -267.697)" fill="#898998"/>
        <path id="Path_215" data-name="Path 215" d="M274.007,452.516l-.468,1.816h1.012l.967-1.172A4.62,4.62,0,0,0,274.007,452.516Zm0,0" transform="translate(-263.482 -435.879)" fill="#686c83"/>
        <path id="Path_216" data-name="Path 216" d="M191.481,309.65l-.618-2.54.747-.2,1.653.974Z" transform="translate(-183.846 -295.63)" fill="#fff"/>
        <path id="Path_217" data-name="Path 217" d="M257.911,309.65l.618-2.54-.747-.2-1.652.974Z" transform="translate(-246.712 -295.63)" fill="#fff"/>
        <path id="Path_218" data-name="Path 218" d="M144.7,429.305a6.012,6.012,0,0,0-8.877,1.33h.621a5.5,5.5,0,0,1,7.709,0h1.46A6.026,6.026,0,0,0,144.7,429.305Zm0,0" transform="translate(-130.827 -412.182)" fill="#4dbaf6"/>
        <path id="Path_219" data-name="Path 219" d="M142.052,333.344l-1.984.539,1.323,1.523-.265.16-1.115.7.731.955a5.989,5.989,0,0,1,2.06-.965Zm0,0" transform="translate(-134.864 -321.088)" fill="#686c83"/>
        <path id="Path_220" data-name="Path 220" d="M183.363,449.853l1.023,1.239H185.4l-.5-1.94A4.627,4.627,0,0,0,183.363,449.853Zm0,0" transform="translate(-176.622 -432.639)" fill="#686c83"/>
        <path id="Path_221" data-name="Path 221" d="M16.576,12.348,11.427,11V9.948a3.289,3.289,0,0,0,1.3-2.49,1.544,1.544,0,0,0,0-3.084v-1a1.647,1.647,0,0,0,.653-1.49A1.65,1.65,0,0,0,12.238.451a9.078,9.078,0,0,0-5.652,0A1.65,1.65,0,0,0,5.445,1.88a1.647,1.647,0,0,0,.662,1.5v1a1.544,1.544,0,0,0,0,3.086A3.288,3.288,0,0,0,7.4,9.941V11L2.248,12.348A3.012,3.012,0,0,0,0,15.26v3.193a.368.368,0,0,0,.368.368H18.456a.368.368,0,0,0,.368-.368V15.26A3.012,3.012,0,0,0,16.576,12.348Zm-4.633,2.063a.367.367,0,0,0,.173.258l1.069.644-.369.447-.013-.008a6.338,6.338,0,0,0-1.493-.686l.806-3.125,1.467.384-1.554,1.788A.367.367,0,0,0,11.943,14.411Zm-5.922,1.34-.007,0-.366-.443,1.069-.644a.368.368,0,0,0,.088-.556l-1.556-1.79,1.468-.384.806,3.124A6.347,6.347,0,0,0,6.021,15.751Zm1.688-4.073,1.109.654-.989.977-.4-1.558Zm.527,3.208-.194-.752,1.374-1.359,1.374,1.359-.194.754a6.376,6.376,0,0,0-2.36,0Zm2.885-3.206.283.074L11,13.31l-.989-.977Zm.869-8.134v.826H6.843V3.545ZM11.4,5.107a3.367,3.367,0,0,1-3.978,0Zm2.064.809a.81.81,0,0,1-.735.806V5.11A.81.81,0,0,1,13.461,5.916ZM6.177,1.95a.913.913,0,0,1,.639-.8,8.338,8.338,0,0,1,5.191,0,.913.913,0,0,1,.639.8.909.909,0,0,1-.4.86H6.579A.91.91,0,0,1,6.177,1.95ZM6.089,6.721a.809.809,0,0,1,0-1.611Zm.754.61V5.592a4.1,4.1,0,0,0,5.147-.015V7.331A2.558,2.558,0,0,1,9.435,9.887H9.4A2.558,2.558,0,0,1,6.843,7.331ZM9.4,10.622h.036a3.272,3.272,0,0,0,1.257-.25v.707l-1.275.752-1.285-.758v-.705A3.273,3.273,0,0,0,9.4,10.622ZM.735,15.26a2.276,2.276,0,0,1,1.7-2.2l2.021-.529,1.507,1.735L4.9,14.9a.368.368,0,0,0-.094.549l.605.733a6.4,6.4,0,0,0-1.6,1.9h-1.1V15.144a.368.368,0,0,0-.735,0v2.941H.735Zm9.8,2.825.257-1a4.25,4.25,0,0,1,.683.3l-.575.7Zm-.759,0h-.71l-.3-1.173a4.35,4.35,0,0,1,1.315,0Zm-1.727-1,.257,1H7.937l-.578-.7A4.251,4.251,0,0,1,8.044,17.086Zm-1.3.708.24.291H6.412A4.329,4.329,0,0,1,6.744,17.794Zm5.106.291.236-.287a4.334,4.334,0,0,1,.326.287Zm1.544,0a5.028,5.028,0,0,0-7.963,0H4.674a5.648,5.648,0,0,1,9.476,0Zm4.695,0h-1.25V16.6a.368.368,0,0,0-.735,0v1.489h-1.1a6.4,6.4,0,0,0-1.591-1.9l.609-.737a.368.368,0,0,0-.094-.549l-1.059-.638,1.506-1.733,2.013.527a2.276,2.276,0,0,1,1.7,2.2Zm0,0" transform="translate(0 0)"/>
        <path id="Path_222" data-name="Path 222" d="M211.8,202.721h.295a1.75,1.75,0,0,1,1.953,0h.295a.368.368,0,0,0,0-.735h-.295a1.006,1.006,0,0,1-.716-.3.368.368,0,0,0-.52,0,1.006,1.006,0,0,1-.716.3H211.8a.368.368,0,0,0,0,.735Zm0,0" transform="translate(-203.657 -194.17)"/>
        <path id="Path_223" data-name="Path 223" d="M438.368,401.918a.367.367,0,1,0,.26.107A.37.37,0,0,0,438.368,401.918Zm0,0" transform="translate(-421.897 -387.142)"/>
      </g>
    </g>
  </g>
</svg>
