<svg xmlns="http://www.w3.org/2000/svg" xmlns:xlink="http://www.w3.org/1999/xlink" width="30" height="30" viewBox="0 0 30 30">
  <defs>
    <clipPath id="clip-inventory">
      <rect width="30" height="30"/>
    </clipPath>
  </defs>
  <g id="inventory" clip-path="url(#clip-inventory)">
    <g id="Group_298" data-name="Group 298">
      <circle id="Ellipse_6" data-name="Ellipse 6" cx="13.585" cy="13.585" r="13.585" transform="translate(1 1)" fill="#ffc200"/>
      <path id="Path_224" data-name="Path 224" d="M88.247,26.3q0-.378-.021-.75l-10.9-5.1-1.659-.217L73.7,19.47l-2.3,3.991L73.238,25.3l-5.767.077-.151,3.343L66.769,32.3l1.3,5.883A13.588,13.588,0,0,0,88.247,26.3Z" transform="translate(-60.077 -11.717)" fill="#ff9500"/>
      <g id="warehouse" transform="translate(-1.766 6.001)">
        <path id="Path_348" data-name="Path 348" d="M24.153,5.2,16.555.047a.271.271,0,0,0-.3,0L8.652,5.2a.271.271,0,0,0-.119.225V16.01a.271.271,0,0,0,.271.271H24a.271.271,0,0,0,.271-.271V5.427A.271.271,0,0,0,24.153,5.2Z" transform="translate(0 -0.001)" fill="#f07b52"/>
        <path id="Path_349" data-name="Path 349" d="M9.347,16.009V5.427A.271.271,0,0,1,9.466,5.2L16.809.219,16.555.046a.271.271,0,0,0-.3,0L8.652,5.2a.271.271,0,0,0-.119.225V16.009a.271.271,0,0,0,.271.271h.814A.271.271,0,0,1,9.347,16.009Z" transform="translate(0 0)" fill="#e5563c"/>
        <path id="Path_350" data-name="Path 350" d="M103.907,204.8H94.138a.271.271,0,0,0-.271.271V214.3a.271.271,0,0,0,.271.271h9.769a.271.271,0,0,0,.271-.271v-9.226A.271.271,0,0,0,103.907,204.8Z" transform="translate(-82.62 -198.288)" fill="#74757b"/>
        <path id="Path_351" data-name="Path 351" d="M94.138,204.8a.271.271,0,0,0-.271.271V214.3a.271.271,0,0,0,.271.271h.543V204.8Z" transform="translate(-82.62 -198.288)" fill="#606268"/>
        <path id="Path_352" data-name="Path 352" d="M87.927,170.667H77.072a.271.271,0,0,0-.271.271v1.085a.271.271,0,0,0,.271.271H87.927a.271.271,0,0,0,.271-.271v-1.085A.271.271,0,0,0,87.927,170.667Z" transform="translate(-66.097 -165.24)" fill="#c3c4c6"/>
        <path id="Path_353" data-name="Path 353" d="M87.927,196.538H77.072a.271.271,0,0,1-.271-.271v.543a.271.271,0,0,0,.271.271H87.927a.271.271,0,0,0,.271-.271v-.543A.271.271,0,0,1,87.927,196.538Z" transform="translate(-66.097 -190.026)" fill="#afb0b4"/>
        <g id="Group_242" data-name="Group 242" transform="translate(15.046 1.899)">
          <path id="Path_354" data-name="Path 354" d="M215.776,60.277h-2.171a.271.271,0,1,1,0-.543h2.171a.271.271,0,1,1,0,.543Z" transform="translate(-213.334 -59.734)" fill="#e5563c"/>
          <path id="Path_355" data-name="Path 355" d="M215.776,94.411h-2.171a.271.271,0,1,1,0-.543h2.171a.271.271,0,1,1,0,.543Z" transform="translate(-213.334 -92.783)" fill="#e5563c"/>
          <path id="Path_356" data-name="Path 356" d="M215.776,128.544h-2.171a.271.271,0,1,1,0-.543h2.171a.271.271,0,1,1,0,.543Z" transform="translate(-213.334 -125.83)" fill="#e5563c"/>
        </g>
        <g id="Group_243" data-name="Group 243" transform="translate(11.247 8.683)">
          <path id="Path_357" data-name="Path 357" d="M97.395,273.067H94.138a.271.271,0,0,0-.271.271v3.256a.271.271,0,0,0,.271.271l1.628.271,1.628-.271a.271.271,0,0,0,.271-.271v-3.256A.271.271,0,0,0,97.395,273.067Z" transform="translate(-93.867 -273.067)" fill="#fddd85"/>
          <path id="Path_358" data-name="Path 358" d="M97.395,392.534H94.138a.271.271,0,0,0-.271.271v3.256a.271.271,0,0,0,.271.271h3.256a.271.271,0,0,0,.271-.271v-3.256A.271.271,0,0,0,97.395,392.534Z" transform="translate(-93.867 -388.735)" fill="#fddd85"/>
        </g>
        <path id="Path_359" data-name="Path 359" d="M94.41,396.062v-3.256a.271.271,0,0,1,.271-.271h-.543a.271.271,0,0,0-.271.271v3.256a.271.271,0,0,0,.271.271h.543A.271.271,0,0,1,94.41,396.062Z" transform="translate(-82.62 -380.052)" fill="#fdd042"/>
        <path id="Path_360" data-name="Path 360" d="M137.619,392.534h-1.085v1.357a.271.271,0,0,0,.271.271h.543a.271.271,0,0,0,.271-.271Z" transform="translate(-123.931 -380.052)" fill="#f2c127"/>
        <path id="Path_361" data-name="Path 361" d="M129.358,478.411h-1.085a.271.271,0,1,1,0-.543h1.085a.271.271,0,1,1,0,.543Z" transform="translate(-115.669 -462.673)" fill="#74757b"/>
        <path id="Path_362" data-name="Path 362" d="M94.41,276.595v-3.256a.271.271,0,0,1,.271-.271h-.543a.271.271,0,0,0-.271.271v3.256a.271.271,0,0,0,.271.271h.543A.271.271,0,0,1,94.41,276.595Z" transform="translate(-82.62 -264.384)" fill="#fdd042"/>
        <path id="Path_363" data-name="Path 363" d="M137.619,273.067h-1.085v1.357a.271.271,0,0,0,.271.271h.543a.271.271,0,0,0,.271-.271Z" transform="translate(-123.931 -264.384)" fill="#f2c127"/>
        <path id="Path_364" data-name="Path 364" d="M129.358,358.944h-1.085a.271.271,0,1,1,0-.543h1.085a.271.271,0,1,1,0,.543Z" transform="translate(-115.669 -347.005)" fill="#74757b"/>
        <path id="Path_365" data-name="Path 365" d="M216.862,392.534h-3.256a.271.271,0,0,0-.271.271v3.256a.271.271,0,0,0,.271.271h3.256a.271.271,0,0,0,.271-.271v-3.256A.271.271,0,0,0,216.862,392.534Z" transform="translate(-198.288 -380.052)" fill="#fddd85"/>
        <path id="Path_366" data-name="Path 366" d="M213.876,396.062v-3.256a.271.271,0,0,1,.271-.271H213.6a.271.271,0,0,0-.271.271v3.256a.271.271,0,0,0,.271.271h.543A.271.271,0,0,1,213.876,396.062Z" transform="translate(-198.287 -380.052)" fill="#fdd042"/>
        <path id="Path_367" data-name="Path 367" d="M257.085,392.534H256v1.357a.271.271,0,0,0,.271.271h.543a.271.271,0,0,0,.271-.271v-1.357Z" transform="translate(-239.598 -380.052)" fill="#f2c127"/>
        <path id="Path_368" data-name="Path 368" d="M248.824,478.411h-1.085a.271.271,0,1,1,0-.543h1.085a.271.271,0,0,1,0,.543Z" transform="translate(-231.336 -462.673)" fill="#74757b"/>
      </g>
    </g>
  </g>
</svg>
