<svg xmlns="http://www.w3.org/2000/svg" xmlns:xlink="http://www.w3.org/1999/xlink" width="30" height="30" viewBox="0 0 30 30">
  <defs>
    <clipPath id="clip-Store_people">
      <rect width="30" height="30"/>
    </clipPath>
  </defs>
  <g id="Store_people" data-name="Store people" clip-path="url(#clip-Store_people)">
    <g id="Group_24" data-name="Group 24">
      <path id="Path_10" data-name="Path 10" d="M28,14A13.989,13.989,0,0,1,15.142,27.954Q14.579,28,14,28c-.45,0-.9-.021-1.336-.063a13.9,13.9,0,0,1-4.8-1.349A14,14,0,1,1,28,14Zm0,0" transform="translate(0.996 1)" fill="#ffc200"/>
      <path id="Path_11" data-name="Path 11" d="M307.08,261.493v1.753a14.055,14.055,0,0,1-6.809,6.879,13.889,13.889,0,0,1-1.689.66,13.747,13.747,0,0,1-2.018.479h-.009v-9.772a3.969,3.969,0,0,1,3.645-3.956c.107-.009.216-.013.325-.013h2.585a3.965,3.965,0,0,1,3.971,3.969Zm0,0" transform="translate(-279.337 -242.44)" fill="#bfd5de"/>
      <path id="Path_12" data-name="Path 12" d="M342.123,261.493v1.753a14.055,14.055,0,0,1-6.809,6.879,13.889,13.889,0,0,1-1.689.66v-9.292a3.97,3.97,0,0,1,3.97-3.969h.558A3.97,3.97,0,0,1,342.123,261.493Zm0,0" transform="translate(-314.38 -242.44)" fill="#dde8ed"/>
      <path id="Path_13" data-name="Path 13" d="M276.2,154.7a1.317,1.317,0,1,1-1.106-1.3A1.318,1.318,0,0,1,276.2,154.7Zm0,0" transform="translate(-257.606 -143.991)" fill="#d3a489"/>
      <path id="Path_14" data-name="Path 14" d="M375.432,283.711l-1.066,1.709-1.066-1.709" transform="translate(-351.886 -267.195)" fill="#f74f4f"/>
      <path id="Path_15" data-name="Path 15" d="M369.43,312.106,368,313.915l-1.434-1.81L368,306.832Zm0,0" transform="translate(-345.516 -289.052)" fill="#f74f4f"/>
      <path id="Path_16" data-name="Path 16" d="M299.594,154.988a1.318,1.318,0,0,1-1.106,1.3,4.926,4.926,0,0,1,0-2.6A1.318,1.318,0,0,1,299.594,154.988Zm0,0" transform="translate(-280.999 -144.283)" fill="#bf8e75"/>
      <path id="Path_17" data-name="Path 17" d="M289.985,169.326a.471.471,0,1,1-.471-.471A.471.471,0,0,1,289.985,169.326Zm0,0" transform="translate(-272.236 -158.621)" fill="#bf8e75"/>
      <path id="Path_18" data-name="Path 18" d="M352.487,249.385l-1.787.993-.544-2.529,1.111-.654" transform="translate(-330.007 -232.677)" fill="#bfd5de"/>
      <path id="Path_19" data-name="Path 19" d="M392.781,249.385l1.787.993.544-2.529L394,247.2" transform="translate(-370.301 -232.677)" fill="#bfd5de"/>
      <path id="Path_20" data-name="Path 20" d="M463.828,154.7a1.316,1.316,0,1,0,1.106-1.3A1.317,1.317,0,0,0,463.828,154.7Zm0,0" transform="translate(-437.463 -143.991)" fill="#d3a489"/>
      <g id="Group_23" data-name="Group 23" transform="translate(17.579 5.096)">
        <path id="Path_21" data-name="Path 21" d="M463.828,154.988a1.317,1.317,0,0,0,1.106,1.3,4.92,4.92,0,0,0,0-2.6A1.317,1.317,0,0,0,463.828,154.988Zm0,0" transform="translate(-455.042 -149.379)" fill="#bf8e75"/>
        <path id="Path_22" data-name="Path 22" d="M480.246,169.326a.471.471,0,1,1-.471-.471A.471.471,0,0,1,480.246,169.326Zm0,0" transform="translate(-469.672 -163.717)" fill="#bf8e75"/>
        <path id="Path_23" data-name="Path 23" d="M312.97,79.809a4.9,4.9,0,0,1-4.114,4.838,4.846,4.846,0,0,1-.787.063,4.9,4.9,0,0,1-4.9-4.9,6.983,6.983,0,0,1,1.249-4.076c.9-.972,2.226-.825,3.652-.825a4.844,4.844,0,0,1,.787.063A4.9,4.9,0,0,1,312.97,79.809Zm0,0" transform="translate(-303.168 -74.9)" fill="#bf8e75"/>
        <path id="Path_24" data-name="Path 24" d="M369.716,229.555v1.738a1.416,1.416,0,0,1-2.833,0v-1.738Zm0,0" transform="translate(-363.398 -221.097)" fill="#bf8e75"/>
      </g>
      <path id="Path_25" data-name="Path 25" d="M384.4,259.328v.11a1.024,1.024,0,1,1-1.983.185q.142.009.285.009a4.9,4.9,0,0,0,1.7-.3Zm0,0" transform="translate(-360.501 -244.146)" fill="#d3a489"/>
      <path id="Path_26" data-name="Path 26" d="M340.162,81.041a4.9,4.9,0,1,1-.024-.489C340.154,80.713,340.162,80.876,340.162,81.041Zm0,0" transform="translate(-312.781 -71.036)" fill="#d3a489"/>
      <path id="Path_27" data-name="Path 27" d="M370.177,196.4a2.479,2.479,0,0,1-1.195-.308.218.218,0,1,1,.21-.382,2.034,2.034,0,0,0,1.97,0,.218.218,0,0,1,.21.382A2.479,2.479,0,0,1,370.177,196.4Zm0,0" transform="translate(-347.696 -183.978)" fill="#bf8e75"/>
      <path id="Path_28" data-name="Path 28" d="M354.479,149.837a.556.556,0,1,1-.556-.556A.556.556,0,0,1,354.479,149.837Zm0,0" transform="translate(-333.042 -140.117)" fill="#3d4159"/>
      <path id="Path_29" data-name="Path 29" d="M412.979,149.837a.556.556,0,1,1-.556-.556A.556.556,0,0,1,412.979,149.837Zm0,0" transform="translate(-388.343 -140.117)" fill="#3d4159"/>
      <path id="Path_30" data-name="Path 30" d="M363.391,153.535a.238.238,0,1,1-.238-.238A.238.238,0,0,1,363.391,153.535Zm0,0" transform="translate(-342.067 -143.913)" fill="#fff"/>
      <path id="Path_31" data-name="Path 31" d="M422.391,153.535a.238.238,0,1,1-.238-.238A.238.238,0,0,1,422.391,153.535Zm0,0" transform="translate(-397.841 -143.913)" fill="#fff"/>
      <path id="Path_32" data-name="Path 32" d="M379.586,176.753h-1.112a.24.24,0,0,1,0-.48h1.112a.24.24,0,1,1,0,.48Zm0,0" transform="translate(-356.55 -165.633)" fill="#bf8e75"/>
      <path id="Path_33" data-name="Path 33" d="M422.289,327.723h2.136v.654h-2.136Zm0,0" transform="translate(-398.195 -308.8)" fill="#bfd5de"/>
      <path id="Path_34" data-name="Path 34" d="M387.539,49.312a2.971,2.971,0,0,1,2.752,2.815l.014.283h.854l.46,3.059,1.114-.345-.15-3a2.971,2.971,0,0,0-2.978-2.823Zm0,0" transform="translate(-365.346 -45.608)" fill="#2a2f4f"/>
      <path id="Path_35" data-name="Path 35" d="M404.055,27.816a3.027,3.027,0,0,1-4.281,4.281Zm0,0" transform="translate(-376.911 -25.295)" fill="#3d4159"/>
      <path id="Path_36" data-name="Path 36" d="M308.34,52.41h-3.716l-.46,3.059-1.114-.345.15-3a2.97,2.97,0,0,1,2.978-2.823l5.366.02.709,1.277" transform="translate(-285.478 -45.608)" fill="#3d4159"/>
      <path id="Path_37" data-name="Path 37" d="M308.241,49.312a2.971,2.971,0,0,0-2.752,2.815l-.014.283h-.854l-.46,3.059-1.114-.345.15-3a2.97,2.97,0,0,1,2.978-2.823Zm0,0" transform="translate(-285.474 -45.608)" fill="#2a2f4f"/>
      <path id="Path_38" data-name="Path 38" d="M31.31,268.131v9.51a14.025,14.025,0,0,1-9.834-8.058v-1.451a3.709,3.709,0,0,1,2.748-3.583c.058-.016.116-.03.176-.043a3.621,3.621,0,0,1,.482-.071c.1-.008.2-.013.3-.013H27.6a3.714,3.714,0,0,1,.787.083l.043.01c.043.01.085.02.128.031h0a3.712,3.712,0,0,1,2.748,3.584Zm0,0" transform="translate(-19.302 -248.961)" fill="#3d4159"/>
      <path id="Path_39" data-name="Path 39" d="M75.918,265.949l-.009.042-1.183,5.5-.184.014c-.087.006-.174.011-.261.015q-.269.013-.54.013t-.553-.013c-.083,0-.166-.009-.249-.015l-.185-.014-1.183-5.5-.009-.042Zm0,0" transform="translate(-66.649 -250.405)" fill="#66baed"/>
      <path id="Path_40" data-name="Path 40" d="M95.171,288.895l-1,1.6-1-1.6" transform="translate(-87.084 -272.096)" fill="#dde8ed"/>
      <path id="Path_41" data-name="Path 41" d="M98.337,313.618c-.087.006-.62,2.828-.8,2.828a28.654,28.654,0,0,1-.8-2.828l.8-3.121Zm0,0" transform="translate(-90.444 -292.516)" fill="#dde8ed"/>
      <path id="Path_42" data-name="Path 42" d="M73.736,256.823l-1.67.928-.508-2.363,1.038-.611" transform="translate(-66.645 -239.844)" fill="#2ba1cf"/>
      <path id="Path_43" data-name="Path 43" d="M111.379,256.823l1.67.928.508-2.363-1.038-.611" transform="translate(-104.288 -239.844)" fill="#2ba1cf"/>
      <path id="Path_44" data-name="Path 44" d="M105.925,269.134h.53l-2.273,5.882-.447,1.158-.5-1.232.457-1.568,2.154-7.387.013-.041,1.142.373Zm0,0" transform="translate(-96.592 -250.401)" fill="#2a2f4f"/>
      <path id="Path_45" data-name="Path 45" d="M54.272,275.016l-.447,1.158-.5-1.232-2.338-5.808h.53l-1.08-2.815,1.143-.373.012.041,2.189,7.387Zm0,0" transform="translate(-46.683 -250.401)" fill="#2a2f4f"/>
      <path id="Path_46" data-name="Path 46" d="M89.834,238.3v1.624a1.323,1.323,0,0,1-2.647,0V238.3Zm0,0" transform="translate(-81.419 -224.265)" fill="#eab599"/>
      <path id="Path_47" data-name="Path 47" d="M103.548,266.113v.1a.957.957,0,1,1-1.853.172q.133.008.267.008a4.58,4.58,0,0,0,1.587-.283Zm0,0" transform="translate(-95.134 -250.56)" fill="#f6caae"/>
      <path id="Path_48" data-name="Path 48" d="M2.461,168.356a1.231,1.231,0,1,1-1.23-1.231,1.252,1.252,0,0,1,.2.016A1.231,1.231,0,0,1,2.461,168.356Zm0,0" transform="translate(1 -156.985)" fill="#f6caae"/>
      <path id="Path_49" data-name="Path 49" d="M24.318,168.629a1.231,1.231,0,0,1-1.033,1.215,4.6,4.6,0,0,1,0-2.43A1.231,1.231,0,0,1,24.318,168.629Zm0,0" transform="translate(-20.857 -157.259)" fill="#eab599"/>
      <path id="Path_50" data-name="Path 50" d="M15.341,182.026a.44.44,0,1,1-.44-.44A.44.44,0,0,1,15.341,182.026Zm0,0" transform="translate(-12.67 -170.655)" fill="#eab599"/>
      <path id="Path_51" data-name="Path 51" d="M177.762,168.356a1.231,1.231,0,1,0,1.231-1.231,1.25,1.25,0,0,0-.2.016A1.231,1.231,0,0,0,177.762,168.356Zm0,0" transform="translate(-167.04 -156.985)" fill="#f6caae"/>
      <path id="Path_52" data-name="Path 52" d="M177.762,168.629a1.231,1.231,0,0,0,1.034,1.215,4.6,4.6,0,0,0,0-2.43A1.231,1.231,0,0,0,177.762,168.629Zm0,0" transform="translate(-167.04 -157.259)" fill="#eab599"/>
      <path id="Path_53" data-name="Path 53" d="M36.818,66.638v1.744A4.579,4.579,0,0,1,32.974,72.9l-.022,0a4.5,4.5,0,0,1-.712.056,4.579,4.579,0,0,1-4.579-4.579V66.638a4.576,4.576,0,0,1,4.579-4.579h0a4.575,4.575,0,0,1,4.579,4.579Zm0,0" transform="translate(-25.147 -57.665)" fill="#eab599"/>
      <path id="Path_54" data-name="Path 54" d="M193.1,182.026a.44.44,0,1,1-.44-.44A.44.44,0,0,1,193.1,182.026Zm0,0" transform="translate(-180.71 -170.655)" fill="#eab599"/>
      <path id="Path_55" data-name="Path 55" d="M61.466,67.594v1.744a4.579,4.579,0,0,1-3.844,4.519l-.022,0a4.579,4.579,0,0,1-3.865-4.523V67.594A4.58,4.58,0,0,1,57.6,63.07,4.58,4.58,0,0,1,61.466,67.594Zm0,0" transform="translate(-49.796 -58.621)" fill="#f6caae"/>
      <path id="Path_56" data-name="Path 56" d="M75.6,163.816a.519.519,0,1,1-.52-.52A.52.52,0,0,1,75.6,163.816Zm0,0" transform="translate(-69.481 -153.367)" fill="#3d4159"/>
      <path id="Path_57" data-name="Path 57" d="M130.254,163.816a.519.519,0,1,1-.519-.52A.519.519,0,0,1,130.254,163.816Zm0,0" transform="translate(-121.148 -153.367)" fill="#3d4159"/>
      <path id="Path_58" data-name="Path 58" d="M83.922,167.273a.223.223,0,1,1-.223-.223A.222.222,0,0,1,83.922,167.273Zm0,0" transform="translate(-77.911 -156.915)" fill="#fff"/>
      <path id="Path_59" data-name="Path 59" d="M139.047,167.273a.223.223,0,1,1-.223-.223A.223.223,0,0,1,139.047,167.273Zm0,0" transform="translate(-130.022 -156.915)" fill="#fff"/>
      <path id="Path_60" data-name="Path 60" d="M99.052,185.237H98.013a.224.224,0,1,1,0-.448h1.039a.224.224,0,1,1,0,.448Zm0,0" transform="translate(-91.441 -173.683)" fill="#eab599"/>
      <path id="Path_61" data-name="Path 61" d="M90.264,207.317a2.315,2.315,0,0,1-1.116-.288.2.2,0,1,1,.2-.357,1.9,1.9,0,0,0,1.84,0,.2.2,0,0,1,.2.357A2.315,2.315,0,0,1,90.264,207.317Zm0,0" transform="translate(-83.173 -194.346)" fill="#eab599"/>
      <path id="Path_62" data-name="Path 62" d="M36.818,53.135v1.786h-.852v-1.4L29.814,52.38l-1.3-.242v2.784H27.66V53.135a3.686,3.686,0,0,1,3.686-3.686h1.785c.048,0,.1,0,.145,0A3.685,3.685,0,0,1,36.818,53.135Zm0,0" transform="translate(-25.147 -45.745)" fill="#e8c934"/>
      <path id="Path_63" data-name="Path 63" d="M74.047,53.191v1.786h-.852v-1.4l-6.151-1.143a3.529,3.529,0,0,1,7,.756Zm0,0" transform="translate(-62.377 -45.8)" fill="#ffe152"/>
      <path id="Path_64" data-name="Path 64" d="M155.89,391.438v.967a14.066,14.066,0,0,1-8.934,1q-.581-.127-1.144-.3a13.922,13.922,0,0,1-2-.792v-.875a4.557,4.557,0,0,1,3.375-4.4c.071-.019.142-.036.215-.052A4.568,4.568,0,0,1,148,386.9c.123-.01.247-.015.373-.015h2.966a4.558,4.558,0,0,1,.966.1l.053.011c.053.012.105.025.157.039h0a4.562,4.562,0,0,1,3.376,4.4Zm0,0" transform="translate(-134.948 -364.725)" fill="#e8c934"/>
      <path id="Path_65" data-name="Path 65" d="M190.46,391.438v.967a14.066,14.066,0,0,1-8.934,1q-.581-.127-1.144-.3v-1.666a4.557,4.557,0,0,1,3.375-4.4c.071-.019.142-.036.215-.052a4.569,4.569,0,0,1,.593-.088c.123-.01.247-.015.373-.015h.966a4.559,4.559,0,0,1,.966.1l.053.011c.053.012.105.025.157.039h0a4.562,4.562,0,0,1,3.376,4.4Zm0,0" transform="translate(-169.518 -364.725)" fill="#ffe152"/>
      <path id="Path_66" data-name="Path 66" d="M210.662,388.754l-.012.051-1.428,6.643q-.563.046-1.138.046c-.45,0-.9-.021-1.336-.063l-1.424-6.624-.012-.052Zm0,0" transform="translate(-193.084 -366.494)" fill="#f2f0ec"/>
      <path id="Path_67" data-name="Path 67" d="M207.991,377.544l-2.051,1.14-.624-2.9,1.274-.75" transform="translate(-193.088 -353.522)" fill="#d8d5d0"/>
      <path id="Path_68" data-name="Path 68" d="M254.223,377.544l2.051,1.14.624-2.9-1.274-.75" transform="translate(-239.32 -353.522)" fill="#d8d5d0"/>
      <path id="Path_69" data-name="Path 69" d="M142.266,142.2v-6.87a6.123,6.123,0,1,1,12.247,0v6.87" transform="translate(-133.485 -121.137)" fill="#f74f4f"/>
      <path id="Path_70" data-name="Path 70" d="M144.781,135.606c0,2.43,1.423,5.241,2.2,6.6h-4.723v-6.87a6.119,6.119,0,0,1,6.079-6.123C146.458,129.262,144.781,132.282,144.781,135.606Zm0,0" transform="translate(-133.482 -121.148)" fill="#dd3033"/>
      <path id="Path_71" data-name="Path 71" d="M227.766,354.793v1.994a1.625,1.625,0,0,1-3.251,0v-1.994Zm0,0" transform="translate(-211.237 -334.39)" fill="#eab599"/>
      <path id="Path_72" data-name="Path 72" d="M244.612,388.953v.126a1.175,1.175,0,1,1-2.276.212q.163.01.327.01a5.609,5.609,0,0,0,1.948-.348Zm0,0" transform="translate(-228.083 -366.682)" fill="#f6caae"/>
      <path id="Path_73" data-name="Path 73" d="M120.464,268.9a1.512,1.512,0,0,1-1.269,1.492,1.532,1.532,0,0,1-.242.019,1.511,1.511,0,1,1,0-3.023,1.539,1.539,0,0,1,.242.019A1.512,1.512,0,0,1,120.464,268.9Zm0,0" transform="translate(-110.019 -251.764)" fill="#f6caae"/>
      <path id="Path_74" data-name="Path 74" d="M147.31,269.23a1.512,1.512,0,0,1-1.269,1.492,5.65,5.65,0,0,1,0-2.984A1.511,1.511,0,0,1,147.31,269.23Zm0,0" transform="translate(-136.864 -252.096)" fill="#eab599"/>
      <path id="Path_75" data-name="Path 75" d="M136.283,285.685a.54.54,0,1,1-.54-.54A.54.54,0,0,1,136.283,285.685Zm0,0" transform="translate(-126.809 -268.551)" fill="#eab599"/>
      <path id="Path_76" data-name="Path 76" d="M160.914,200.434v5.2a5.6,5.6,0,0,1-2.978,1.482l-.028,0a5.539,5.539,0,0,1-.875.068,5.623,5.623,0,0,1-5.623-5.623V199.42a5.656,5.656,0,0,1,.058-.807,3.563,3.563,0,0,0,4.478-.288,3.184,3.184,0,0,0,.845-1.32,3.711,3.711,0,0,0,1.161,2.316A4.15,4.15,0,0,0,160.914,200.434Zm0,0" transform="translate(-142.13 -185.23)" fill="#eab599"/>
      <path id="Path_77" data-name="Path 77" d="M191.186,200.434v5.2a5.6,5.6,0,0,1-2.978,1.482l-.028,0a5.624,5.624,0,0,1-4.747-5.555V199.42c0-.057,0-.113,0-.17a3.523,3.523,0,0,0,2.782-.926,3.183,3.183,0,0,0,.845-1.32,3.712,3.712,0,0,0,1.161,2.316A4.15,4.15,0,0,0,191.186,200.434Zm0,0" transform="translate(-172.402 -185.23)" fill="#f6caae"/>
      <path id="Path_78" data-name="Path 78" d="M277.168,255.508a.934.934,0,1,0-1.868,0" transform="translate(-259.245 -239.652)" fill="#eab599"/>
      <path id="Path_79" data-name="Path 79" d="M200.9,255.508a.934.934,0,1,0-1.868,0" transform="translate(-187.143 -239.652)" fill="#eab599"/>
      <path id="Path_80" data-name="Path 80" d="M205.713,267.9a.638.638,0,1,1-.638-.638A.638.638,0,0,1,205.713,267.9Zm0,0" transform="translate(-192.257 -251.642)" fill="#3d4159"/>
      <path id="Path_81" data-name="Path 81" d="M281.991,267.9a.638.638,0,1,1-.638-.638A.638.638,0,0,1,281.991,267.9Zm0,0" transform="translate(-264.363 -251.642)" fill="#3d4159"/>
      <path id="Path_82" data-name="Path 82" d="M239.094,298.777h-1.276a.275.275,0,0,1,0-.55h1.276a.275.275,0,0,1,0,.55Zm0,0" transform="translate(-223.552 -280.917)" fill="#eab599"/>
      <path id="Path_83" data-name="Path 83" d="M228.3,325.892a2.843,2.843,0,0,1-1.371-.354.25.25,0,1,1,.241-.438,2.334,2.334,0,0,0,2.26,0,.25.25,0,1,1,.241.438A2.841,2.841,0,0,1,228.3,325.892Zm0,0" transform="translate(-213.396 -306.292)" fill="#eab599"/>
      <path id="Path_84" data-name="Path 84" d="M215.941,272.14a.273.273,0,1,1-.273-.273A.273.273,0,0,1,215.941,272.14Zm0,0" transform="translate(-202.615 -255.999)" fill="#fff"/>
      <path id="Path_85" data-name="Path 85" d="M292.789,272.14a.273.273,0,1,1-.273-.273A.273.273,0,0,1,292.789,272.14Zm0,0" transform="translate(-275.26 -255.999)" fill="#fff"/>
      <path id="Path_86" data-name="Path 86" d="M300.006,295.224a.7.7,0,1,1-.7-.7A.7.7,0,0,1,300.006,295.224Zm0,0" transform="translate(-281.275 -277.417)" fill="#eab599"/>
      <path id="Path_87" data-name="Path 87" d="M185.651,295.224a.7.7,0,1,1-.7-.7A.7.7,0,0,1,185.651,295.224Zm0,0" transform="translate(-173.174 -277.417)" fill="#eab599"/>
    </g>
  </g>
</svg>
