<svg xmlns="http://www.w3.org/2000/svg" xmlns:xlink="http://www.w3.org/1999/xlink" width="30" height="30" viewBox="0 0 30 30">
  <defs>
    <clipPath id="clip-Store_managers">
      <rect width="30" height="30"/>
    </clipPath>
  </defs>
  <g id="Store_managers" data-name="Store managers" clip-path="url(#clip-Store_managers)">
    <g id="Group_43" data-name="Group 43" transform="translate(-287 -399)">
      <g id="Group_42" data-name="Group 42" transform="translate(288 400)">
        <g id="Group_10" data-name="Group 10">
          <g id="Group_9" data-name="Group 9">
            <g id="Group_8" data-name="Group 8">
              <g id="Group_7" data-name="Group 7">
                <g id="Group_6" data-name="Group 6">
                  <g id="Group_5" data-name="Group 5">
                    <g id="Group_4" data-name="Group 4">
                      <g id="Group_3" data-name="Group 3">
                        <g id="Group_2" data-name="Group 2">
                          <g id="Group_1" data-name="Group 1">
                            <circle id="Ellipse_1" data-name="Ellipse 1" cx="14.131" cy="14.131" r="14.131" fill="#ffc200"/>
                          </g>
                        </g>
                      </g>
                    </g>
                  </g>
                </g>
              </g>
            </g>
          </g>
        </g>
      </g>
      <path id="Path_161" data-name="Path 161" d="M83.98,184.742a14.069,14.069,0,0,0,13.534-13.3l-6.848-3.955H90.2l-2.309,6.62-12.164-.373Z" transform="translate(218.731 243.507)" fill="#ff9500"/>
      <path id="Path_130" data-name="Path 130" d="M408.428,61.793v1.179h-2.359V61.793h2.359Z" transform="translate(-100.057 345.721)" fill="#d3d3d3"/>
      <path id="Path_131" data-name="Path 131" d="M375.476,61.793v5.9h-4.717v-5.9h1.179v1.179H374.3V61.793Z" transform="translate(-65.926 345.721)" fill="#f5f5f5"/>
      <g id="Group_28" data-name="Group 28" transform="translate(292.45 413.411)">
        <path id="Path_132" data-name="Path 132" d="M1.908,238.345h.746a.884.884,0,0,1,.885.885V240.7H1.769v-.59H.885A.884.884,0,0,1,0,239.23V239.2a.857.857,0,0,1,.856-.858H1.908Z" transform="translate(0 -238.345)" fill="#ffcba8"/>
        <path id="Path_133" data-name="Path 133" d="M409.606,239.2v.027a.884.884,0,0,1-.885.885h-.885v.59h-1.769v-1.474a.884.884,0,0,1,.885-.885h1.8a.857.857,0,0,1,.858.856S409.606,239.2,409.606,239.2Z" transform="translate(-392.505 -238.344)" fill="#ffcba8"/>
      </g>
      <g id="Group_29" data-name="Group 29" transform="translate(298.936 408.693)">
        <circle id="Ellipse_3" data-name="Ellipse 3" cx="0.885" cy="0.885" r="0.885" transform="translate(2.359)" fill="#daeff6"/>
        <circle id="Ellipse_4" data-name="Ellipse 4" cx="0.885" cy="0.885" r="0.885" fill="#daeff6"/>
      </g>
      <g id="Group_30" data-name="Group 30" transform="translate(297.167 407.514)">
        <path id="Path_134" data-name="Path 134" d="M336.453,123.76a.576.576,0,0,1,.174.416.591.591,0,0,1-.59.59h-.59v-1.179h.59A.576.576,0,0,1,336.453,123.76Z" transform="translate(-328.961 -121.522)" fill="#ffcba8"/>
        <path id="Path_135" data-name="Path 135" d="M142.421,123.586v1.179h-.59a.59.59,0,1,1,0-1.179Z" transform="translate(-141.242 -121.522)" fill="#ffcba8"/>
        <path id="Path_136" data-name="Path 136" d="M223.049,242.82v.59a1.179,1.179,0,1,1-2.359,0v-.59l.056-.15a2.332,2.332,0,0,0,.829.15h.59a2.333,2.333,0,0,0,.829-.15Z" transform="translate(-218.036 -236.629)" fill="#ffcba8"/>
        <path id="Path_137" data-name="Path 137" d="M181.858,65.036v.59a2.359,2.359,0,0,1-2.359,2.359h-.59a2.359,2.359,0,0,1-2.359-2.359V63.267l.885-1.474h3.538l.885,1.474Zm-.59-1.179a.885.885,0,1,0-.885.885A.884.884,0,0,0,181.268,63.857Zm-2.359,0a.885.885,0,1,0-.885.885A.884.884,0,0,0,178.91,63.857Z" transform="translate(-175.372 -61.793)" fill="#ffcba8"/>
      </g>
      <g id="Group_31" data-name="Group 31" transform="translate(302.769 414.357)">
        <path id="Path_138" data-name="Path 138" d="M406.069,310.145v-1.179h1.769v5.012a1.769,1.769,0,0,1-1.769,1.769Z" transform="translate(-402.826 -307.554)" fill="#232324"/>
        <path id="Path_139" data-name="Path 139" d="M338.234,269.568v5.307H336.76v-4.717l-.87-3.476A2.951,2.951,0,0,1,338.234,269.568Z" transform="translate(-334.991 -266.681)" fill="#232324"/>
        <path id="Path_140" data-name="Path 140" d="M310.735,423.724v2.948h-1.769Z" transform="translate(-308.966 -418.479)" fill="#232324"/>
        <path id="Path_141" data-name="Path 141" d="M310.735,370.759v1.769l-1.769-.885Z" transform="translate(-308.966 -367.283)" fill="#232324"/>
      </g>
      <path id="Path_142" data-name="Path 142" d="M181.859,1.769V3.538l-.885-1.474h-3.538l-.885,1.474V1.769A1.769,1.769,0,0,1,178.321,0h2.064a1.474,1.474,0,0,1,1.474,1.474Z" transform="translate(121.794 405.45)" fill="#331609"/>
      <g id="Group_32" data-name="Group 32" transform="translate(301 414.295)">
        <path id="Path_143" data-name="Path 143" d="M266.3,326.419v3.833h-.885l-.59-5.6.59-.59.074-.088.811.678Z" transform="translate(-264.533 -321.997)" fill="#ffe5ad"/>
        <path id="Path_144" data-name="Path 144" d="M257.769,264.828v2.654l-.811-.678-.958-.8a1.178,1.178,0,0,0,1.179-1.176v0Z" transform="translate(-256 -264.828)" fill="#ffe5ad"/>
      </g>
      <g id="Group_33" data-name="Group 33" transform="translate(300.042 415.475)">
        <path id="Path_145" data-name="Path 145" d="M229.227,300.934l-.074.088-.59.59-.295.295-.295-.295-.59-.59-.074-.088.958-.8Z" transform="translate(-227.31 -300.138)" fill="#ff2904"/>
        <path id="Path_146" data-name="Path 146" d="M230.7,344.276l.59,5.6h-1.769l.59-5.6.295.295Z" transform="translate(-229.443 -342.802)" fill="#ff2904"/>
      </g>
      <g id="Group_34" data-name="Group 34" transform="translate(299.231 414.295)">
        <path id="Path_147" data-name="Path 147" d="M204.8,266.007l-.958.8-.811.678v-2.654h.59A1.179,1.179,0,0,0,204.8,266.007Z" transform="translate(-203.034 -264.828)" fill="#ffe5ad"/>
        <path id="Path_148" data-name="Path 148" d="M204.509,324.65l-.59,5.6h-.884v-5.6l.811-.678.074.088Z" transform="translate(-203.035 -321.997)" fill="#ffe5ad"/>
      </g>
      <g id="Group_35" data-name="Group 35" transform="translate(294.219 414.357)">
        <path id="Path_149" data-name="Path 149" d="M150.069,423.724l1.769,2.948h-1.769Z" transform="translate(-146.826 -418.479)" fill="#232324"/>
        <path id="Path_150" data-name="Path 150" d="M151.838,371.643l-1.769.885v-1.769Z" transform="translate(-146.826 -367.283)" fill="#232324"/>
        <path id="Path_151" data-name="Path 151" d="M108.275,266.681l-.87,3.476v4.717h-1.474v-5.307A2.95,2.95,0,0,1,108.275,266.681Z" transform="translate(-104.162 -266.681)" fill="#232324"/>
        <path id="Path_152" data-name="Path 152" d="M54.734,310.145v5.6a1.769,1.769,0,0,1-1.769-1.769v-5.012h1.769Z" transform="translate(-52.965 -307.554)" fill="#232324"/>
      </g>
      <g id="Group_36" data-name="Group 36" transform="translate(295.103 416.654)">
        <rect id="Rectangle_6" data-name="Rectangle 6" width="0.885" height="0.59" transform="translate(10.909)" fill="#6f3114"/>
        <rect id="Rectangle_7" data-name="Rectangle 7" width="0.885" height="0.59" fill="#6f3114"/>
      </g>
      <g id="Group_37" data-name="Group 37" transform="translate(297.167 417.833)">
        <rect id="Rectangle_8" data-name="Rectangle 8" width="0.59" height="4.717" fill="#626262"/>
        <rect id="Rectangle_9" data-name="Rectangle 9" width="0.59" height="4.717" transform="translate(7.076)" fill="#626262"/>
      </g>
      <g id="Group_38" data-name="Group 38" transform="translate(298.641 408.398)">
        <path id="Path_153" data-name="Path 153" d="M186.559,90.636a1.179,1.179,0,1,1,1.179-1.179A1.179,1.179,0,0,1,186.559,90.636Zm0-1.769a.59.59,0,1,0,.59.59.59.59,0,0,0-.59-.59Z" transform="translate(-185.38 -88.277)" fill="#454545"/>
        <path id="Path_154" data-name="Path 154" d="M257.179,90.636a1.179,1.179,0,1,1,1.179-1.179A1.179,1.179,0,0,1,257.179,90.636Zm0-1.769a.59.59,0,1,0,.59.59.59.59,0,0,0-.59-.59Z" transform="translate(-253.641 -88.277)" fill="#454545"/>
      </g>
      <g id="Group_39" data-name="Group 39" transform="translate(305.717 409.578)">
        <rect id="Rectangle_10" data-name="Rectangle 10" width="2.948" height="0.59" fill="#b5b5b5"/>
        <rect id="Rectangle_11" data-name="Rectangle 11" width="2.948" height="0.59" transform="translate(0 1.179)" fill="#b5b5b5"/>
        <rect id="Rectangle_12" data-name="Rectangle 12" width="2.948" height="0.59" transform="translate(0 2.359)" fill="#b5b5b5"/>
      </g>
      <g id="Group_40" data-name="Group 40" transform="translate(293.632 406.335)">
        <path id="Path_155" data-name="Path 155" d="M416.666,27.661h-.59v-.59h-.59v.59h-.59v-.885a.3.3,0,0,1,.295-.295h1.179a.3.3,0,0,1,.295.295v.885Z" transform="translate(-402.222 -26.482)" fill="#454545"/>
        <rect id="Rectangle_13" data-name="Rectangle 13" width="0.59" height="4.461" transform="translate(1.174 8.216) rotate(172.403)" fill="#454545"/>
      </g>
      <path id="Path_156" data-name="Path 156" d="M224.36,188.483h0a1.53,1.53,0,0,1-1.091-.454l.418-.416a.943.943,0,0,0,.673.28h0a.952.952,0,0,0,.678-.281l.417.417A1.537,1.537,0,0,1,224.36,188.483Z" transform="translate(76.64 224.103)" fill="#ebb691"/>
      <g id="Group_41" data-name="Group 41" transform="translate(297.462 414.295)">
        <path id="Path_157" data-name="Path 157" d="M309.864,264.89l.87,3.476-1.769.885v-4.423h.295A2.933,2.933,0,0,1,309.864,264.89Z" transform="translate(-303.658 -264.828)" fill="#626262"/>
        <path id="Path_158" data-name="Path 158" d="M310.735,398.126l-1.769,2.948v-3.833Z" transform="translate(-303.659 -392.818)" fill="#626262"/>
        <path id="Path_159" data-name="Path 159" d="M151.838,397.241v3.833l-1.769-2.948Z" transform="translate(-150.069 -392.818)" fill="#626262"/>
        <path id="Path_160" data-name="Path 160" d="M151.838,267.481v1.769l-1.769-.885.87-3.476a2.912,2.912,0,0,1,.6-.062h.295Z" transform="translate(-150.069 -264.828)" fill="#626262"/>
      </g>
    </g>
  </g>
</svg>
