<svg xmlns="http://www.w3.org/2000/svg" xmlns:xlink="http://www.w3.org/1999/xlink" width="30" height="30" viewBox="0 0 30 30">
  <defs>
    <clipPath id="clip-store_menu">
      <rect width="30" height="30"/>
    </clipPath>
  </defs>
  <g id="store_menu" data-name="store menu" clip-path="url(#clip-store_menu)">
    <g id="Group_303" data-name="Group 303">
      <circle id="Ellipse_20" data-name="Ellipse 20" cx="13.833" cy="13.833" r="13.833" transform="translate(1 1)" fill="#ffc200"/>
      <path id="Path_452" data-name="Path 452" d="M123.1,282.4v7.635h12.636c-.3-.368-.6-.736-.911-1.1a2.636,2.636,0,0,0-.79-.73c-.719-.368-1.647-.033-2.36-.417-.84-.445-1-1.674-1.828-2.152-.741-.423-1.724-.082-2.487-.456-.884-.439-1.2-1.7-2.152-1.971a6.8,6.8,0,0,0-.884-.1A1.9,1.9,0,0,1,123.1,282.4Z" transform="translate(-115.343 -265.898)" fill="#e6e9ee"/>
      <rect id="Rectangle_85" data-name="Rectangle 85" width="10.984" height="0.313" transform="translate(9.338 13.455)" fill="#4cdbc4"/>
      <rect id="Rectangle_86" data-name="Rectangle 86" width="10.984" height="0.313" transform="translate(9.338 14.295)" fill="#54c0eb"/>
      <path id="Path_434" data-name="Path 434" d="M123.044,108.123l-6.707-6.409-1.951,1.865-.5-.474-3.742,3.575-4.7-3.575-.98.474,1.325.712-3.363-1,.41,11.8-.593,2.412,7.258,4.515c7.563-.481,13.543-6.494,13.543-13.844C123.044,108.153,123.044,108.138,123.044,108.123Zm0,0" transform="translate(-94.379 -93.377)" fill="#ff9100"/>
      <g id="Group_302" data-name="Group 302">
        <path id="Path_451" data-name="Path 451" d="M133.326,98.358l-10.226,2.75V85.245L133.326,82.5Z" transform="translate(-115.343 -76.971)" fill="#324a5e"/>
        <rect id="Rectangle_84" data-name="Rectangle 84" width="14.146" height="15.864" transform="translate(7.757 8.273)" fill="#fff"/>
        <g id="Group_301" data-name="Group 301" transform="translate(9.311 10.205)">
          <path id="Path_453" data-name="Path 453" d="M153.689,168.644,153,170.038h-.34l-.686-1.394v1.608H151.4V167.7h.768l.659,1.405.659-1.405h.769v2.552h-.571v-1.608Z" transform="translate(-151.4 -167.7)" fill="#ff7058"/>
          <path id="Path_454" data-name="Path 454" d="M216.744,167.7v.511h-1.273v.527h1.142v.489h-1.142v.532h1.312v.505H214.9v-2.552h1.844Z" transform="translate(-211.414 -167.7)" fill="#ff7058"/>
          <path id="Path_455" data-name="Path 455" d="M260.189,167.7h.571v2.552h-.571l-1.219-1.6v1.6H258.4V167.7h.532l1.252,1.647V167.7Z" transform="translate(-252.527 -167.7)" fill="#ff7058"/>
          <path id="Path_456" data-name="Path 456" d="M313.1,169.594a.459.459,0,0,0,.384.176.482.482,0,0,0,.384-.176.767.767,0,0,0,.143-.483V167.7h.571v1.427a1.15,1.15,0,0,1-.307.856,1.081,1.081,0,0,1-.785.3,1.063,1.063,0,0,1-.785-.3,1.137,1.137,0,0,1-.307-.851V167.7h.571v1.411A.675.675,0,0,0,313.1,169.594Z" transform="translate(-303.562 -167.7)" fill="#ff7058"/>
        </g>
      </g>
    </g>
  </g>
</svg>
