<svg xmlns="http://www.w3.org/2000/svg" xmlns:xlink="http://www.w3.org/1999/xlink" width="30" height="30" viewBox="0 0 30 30">
  <defs>
    <clipPath id="clip-working_hours">
      <rect width="30" height="30"/>
    </clipPath>
  </defs>
  <g id="working_hours" data-name="working hours" clip-path="url(#clip-working_hours)">
    <g id="Group_27" data-name="Group 27" transform="translate(-114.699 -336.699)">
      <g id="Group_26" data-name="Group 26" transform="translate(115.699 337.699)">
        <g id="Group_10" data-name="Group 10">
          <g id="Group_9" data-name="Group 9">
            <g id="Group_8" data-name="Group 8">
              <g id="Group_7" data-name="Group 7">
                <g id="Group_6" data-name="Group 6">
                  <g id="Group_5" data-name="Group 5">
                    <g id="Group_4" data-name="Group 4">
                      <g id="Group_3" data-name="Group 3">
                        <g id="Group_2" data-name="Group 2">
                          <g id="Group_1" data-name="Group 1">
                            <circle id="Ellipse_1" data-name="Ellipse 1" cx="14.131" cy="14.131" r="14.131" fill="#ffc200"/>
                          </g>
                        </g>
                      </g>
                    </g>
                  </g>
                </g>
              </g>
            </g>
          </g>
        </g>
      </g>
      <path id="Path_129" data-name="Path 129" d="M83.98,184.742a14.069,14.069,0,0,0,13.534-13.3l-6.848-3.955,2.243,1.633L89.6,165.843,74.4,173.168Z" transform="translate(46.43 181.206)" fill="#ff9500"/>
      <path id="Path_90" data-name="Path 90" d="M124.66,126.881a.521.521,0,0,0,0-.056s0-.007,0-.01,0-.031-.008-.046v-.007a.454.454,0,0,0-.014-.049v0a.513.513,0,0,0-.383-.333,9.381,9.381,0,0,0-8.865-8.865.512.512,0,0,0-1,0,9.381,9.381,0,0,0-8.865,8.865.512.512,0,0,0-.383.333v0a.477.477,0,0,0-.014.049.04.04,0,0,0,0,.006c0,.015-.006.03-.008.046s0,.007,0,.01a.527.527,0,0,0,0,.056.512.512,0,0,0,.4.5c0,.067,0,.135,0,.2a9.373,9.373,0,0,0,4.319,7.9V138.1a.361.361,0,0,0,.361.361h9.4a.361.361,0,0,0,.361-.361v-2.619a9.373,9.373,0,0,0,4.319-7.9c0-.068,0-.135,0-.2A.512.512,0,0,0,124.66,126.881Zm0,0" transform="translate(14.887 224.828)" fill="#232324"/>
      <path id="Path_91" data-name="Path 91" d="M129.312,129.529a9.381,9.381,0,1,1-9.381-9.381A9.381,9.381,0,0,1,129.312,129.529Zm0,0" transform="translate(9.837 222.004)" fill="#e7ad27"/>
      <path id="Path_92" data-name="Path 92" d="M129.312,119.931a9.381,9.381,0,1,1-9.381-9.381A9.381,9.381,0,0,1,129.312,119.931Zm0,0" transform="translate(9.837 230.9)" fill="#333940"/>
      <path id="Path_93" data-name="Path 93" d="M151.592,144.12a7.472,7.472,0,1,1-7.471-7.472A7.472,7.472,0,0,1,151.592,144.12Zm0,0" transform="translate(-14.352 206.711)" fill="#106ea0"/>
      <path id="Path_94" data-name="Path 94" d="M160.259,153.53a6.729,6.729,0,1,1-6.729-6.729A6.729,6.729,0,0,1,160.259,153.53Zm0,0" transform="translate(-23.762 197.301)" fill="#fff"/>
      <path id="Path_95" data-name="Path 95" d="M186.257,173.541a.658.658,0,0,1-.215-1.28l2.79-.966v-4.637a.658.658,0,1,1,1.317,0v5.105a.658.658,0,0,1-.443.622l-3.233,1.119A.662.662,0,0,1,186.257,173.541Zm0,0" transform="translate(-59.722 179.506)" fill="#106ea0"/>
      <path id="Path_96" data-name="Path 96" d="M186.257,167.541a.658.658,0,0,1-.215-1.28l2.79-.966v-4.637a.658.658,0,0,1,1.317,0v5.105a.658.658,0,0,1-.443.622l-3.233,1.119A.662.662,0,0,1,186.257,167.541Zm0,0" transform="translate(-59.722 185.068)" fill="#db0404"/>
      <path id="Path_97" data-name="Path 97" d="M189.707,232.821l-3.233,1.119a.656.656,0,0,1-.827-.381.657.657,0,0,0,.827.863l3.233-1.119a.658.658,0,0,0,.443-.622V232.2A.657.657,0,0,1,189.707,232.821Zm0,0" transform="translate(-59.724 118.149)" fill="#d0d2d3"/>
      <path id="Path_98" data-name="Path 98" d="M115.393,105.614v1.814a.512.512,0,0,1-1.024,0v-1.814a.512.512,0,1,1,1.024,0Zm-.512,16.208a.512.512,0,0,0-.512.512v1.814a.512.512,0,0,0,1.024,0v-1.814A.512.512,0,0,0,114.881,121.822Zm9.267-7.453h-1.814a.512.512,0,1,0,0,1.024h1.814a.512.512,0,0,0,0-1.024Zm-16.721,0h-1.814a.512.512,0,1,0,0,1.024h1.814a.512.512,0,0,0,0-1.024Zm0,0" transform="translate(14.887 235.951)" fill="#fff235"/>
      <g id="Group_25" data-name="Group 25" transform="translate(119.989 342.939)">
        <path id="Path_99" data-name="Path 99" d="M107.427,236.093h-1.814a.512.512,0,0,1-.462-.293.511.511,0,0,0,.462.731h1.814a.511.511,0,0,0,.462-.731A.512.512,0,0,1,107.427,236.093Zm0,0" transform="translate(-105.102 -228.128)" fill="#f6ca14"/>
        <path id="Path_100" data-name="Path 100" d="M232.313,360.012a.512.512,0,0,1-.512-.512v.439a.512.512,0,0,0,1.024,0V359.5A.512.512,0,0,1,232.313,360.012Zm0,0" transform="translate(-222.534 -342.779)" fill="#f6ca14"/>
        <path id="Path_101" data-name="Path 101" d="M336.029,236.093h-1.814a.512.512,0,0,1-.462-.293.511.511,0,0,0,.462.731h1.814a.511.511,0,0,0,.462-.731A.512.512,0,0,1,336.029,236.093Zm0,0" transform="translate(-316.983 -228.128)" fill="#f6ca14"/>
        <path id="Path_102" data-name="Path 102" d="M232.313,131.41a.512.512,0,0,1-.512-.512v.439a.512.512,0,0,0,1.024,0V130.9A.512.512,0,0,1,232.313,131.41Zm0,0" transform="translate(-222.534 -130.898)" fill="#f6ca14"/>
      </g>
      <path id="Path_103" data-name="Path 103" d="M175.141,277.93H172.3a.321.321,0,0,0-.142-.267l-.027-.016-.017-.008v-.67a.724.724,0,0,0-.723-.723h-2.635a.724.724,0,0,0-.723.723v.67l-.017.008-.027.016a.321.321,0,0,0-.141.267h-2.836a.362.362,0,0,0-.362.361v2.835a.362.362,0,0,0,.362.361v.621a9.387,9.387,0,0,0,10.123,0v-.621a.361.361,0,0,0,.361-.361v-2.835A.361.361,0,0,0,175.141,277.93Zm-3.744-.291a.327.327,0,0,0-.068.043l-.023.021a.309.309,0,0,0-.039.047l-.016.027a.321.321,0,0,0-.039.153h-2.266a.321.321,0,0,0-.039-.153.31.31,0,0,0-.016-.027.278.278,0,0,0-.028-.035.323.323,0,0,0-.1-.075v-.67H171.4v.67Zm0,0" transform="translate(-40.311 77.324)" fill="#e7ad27"/>
      <path id="Path_104" data-name="Path 104" d="M175.5,278.291a.361.361,0,0,0-.361-.361H172.3a.321.321,0,0,0-.142-.267l-.026-.016-.017-.008v-.67a.724.724,0,0,0-.723-.723h-2.635a.724.724,0,0,0-.723.723v.67l-.017.008-.027.016a.321.321,0,0,0-.142.267h-2.836a.362.362,0,0,0-.362.361v.355a7.471,7.471,0,0,0,10.846,0Zm-4.106-.652a.327.327,0,0,0-.068.043l-.023.021a.309.309,0,0,0-.039.047l-.016.027a.321.321,0,0,0-.039.153h-2.266a.321.321,0,0,0-.039-.153.31.31,0,0,0-.016-.027.278.278,0,0,0-.028-.035.323.323,0,0,0-.1-.075v-.67H171.4v.67Zm0,0" transform="translate(-40.311 77.324)" fill="#106ea0"/>
      <path id="Path_105" data-name="Path 105" d="M175.141,296.828H165.018a.362.362,0,0,1-.362-.361v-2.835a.362.362,0,0,1,.362-.361h10.123a.361.361,0,0,1,.361.361v2.835A.361.361,0,0,1,175.141,296.828Zm0,0" transform="translate(-40.311 61.546)" fill="#ee5a9c"/>
      <path id="Path_106" data-name="Path 106" d="M179.363,352.062h-9.4a.361.361,0,0,1-.361-.361v-3.2h10.123v3.2A.361.361,0,0,1,179.363,352.062Zm0,0" transform="translate(-44.895 10.351)" fill="#a62973"/>
      <path id="Path_107" data-name="Path 107" d="M179.363,345.472h-9.4a.361.361,0,0,1-.361-.361v-3.2h10.123v3.2A.361.361,0,0,1,179.363,345.472Zm0,0" transform="translate(-44.895 16.459)" fill="#e43c90"/>
      <path id="Path_108" data-name="Path 108" d="M169.6,341.914h10.123v.462H169.6Zm0,0" transform="translate(-44.895 16.459)" fill="#a62973"/>
      <path id="Path_109" data-name="Path 109" d="M214.98,271.93h-.723v-.961h-2.635v.961H210.9v-.961a.724.724,0,0,1,.723-.723h2.635a.724.724,0,0,1,.723.723Zm0,0" transform="translate(-83.171 82.885)" fill="#ee5a9c"/>
      <path id="Path_110" data-name="Path 110" d="M219.2,276.513v-.961a.362.362,0,0,0-.362-.361h-2.635a.361.361,0,0,0-.361.361v.961h.361v-.961h2.635v.961Zm0,0" transform="translate(-87.755 78.302)" fill="#e43c90"/>
      <path id="Path_111" data-name="Path 111" d="M209.468,289.193h-1.093a.322.322,0,0,1,.321-.321h.45A.321.321,0,0,1,209.468,289.193Zm0,0" transform="translate(-80.833 65.622)" fill="#f6ca14"/>
      <path id="Path_112" data-name="Path 112" d="M255.382,289.193h-1.093a.322.322,0,0,1,.321-.321h.45A.321.321,0,0,1,255.382,289.193Zm0,0" transform="translate(-123.388 65.622)" fill="#f6ca14"/>
      <path id="Path_113" data-name="Path 113" d="M258.379,289.2H257.8v-.087a.234.234,0,0,1,.234-.234h.111a.234.234,0,0,1,.234.234v.087Zm0,0" transform="translate(-126.643 65.619)" fill="#fddd3a"/>
      <path id="Path_114" data-name="Path 114" d="M212.469,289.2h-.578v-.087a.234.234,0,0,1,.234-.234h.111a.234.234,0,0,1,.234.234Zm0,0" transform="translate(-84.091 65.619)" fill="#fddd3a"/>
      <path id="Path_115" data-name="Path 115" d="M209.146,288.871h-.45a.322.322,0,0,0-.321.321h.008a.322.322,0,0,1,.313-.249h.45a.322.322,0,0,1,.313.249h.008A.321.321,0,0,0,209.146,288.871Zm0,0" transform="translate(-80.833 65.622)" fill="#fff235"/>
      <path id="Path_116" data-name="Path 116" d="M255.057,288.871h-.45a.322.322,0,0,0-.321.321h.009a.321.321,0,0,1,.313-.249h.45a.321.321,0,0,1,.313.249h.009A.322.322,0,0,0,255.057,288.871Zm0,0" transform="translate(-123.385 65.622)" fill="#fff235"/>
      <path id="Path_117" data-name="Path 117" d="M190.283,334.528a.3.3,0,0,0-.3-.3h-.477a.294.294,0,0,0-.142.036.281.281,0,0,0-.04.026.246.246,0,0,0-.029.025.3.3,0,0,0-.087.211v1.131a.3.3,0,0,0,.3.3h.477a.3.3,0,0,0,.3-.3v-1.131Zm0,0" transform="translate(-63.07 23.581)" fill="#a62973"/>
      <path id="Path_118" data-name="Path 118" d="M189.982,334.547h-.477a.3.3,0,0,1-.3-.3v-.982a.3.3,0,0,1,.3-.3h.477a.3.3,0,0,1,.3.3v.982A.3.3,0,0,1,189.982,334.547Zm0,0" transform="translate(-63.067 24.75)" fill="#e7ad27"/>
      <path id="Path_119" data-name="Path 119" d="M189.982,332.512h-.477a.3.3,0,0,1-.3-.3v-.982a.3.3,0,0,1,.3-.3h.477a.3.3,0,0,1,.3.3v.982A.3.3,0,0,1,189.982,332.512Zm0,0" transform="translate(-63.067 26.636)" fill="#fddd3a"/>
      <path id="Path_120" data-name="Path 120" d="M189.982,330.934h-.477a.3.3,0,0,0-.3.3v.059a.3.3,0,0,1,.3-.3h.477a.3.3,0,0,1,.3.3v-.059A.3.3,0,0,0,189.982,330.934Zm0,0" transform="translate(-63.067 26.636)" fill="#fff235"/>
      <path id="Path_121" data-name="Path 121" d="M192.442,334.395h-.4a.149.149,0,0,0-.149.149v.623h.7v-.623A.149.149,0,0,0,192.442,334.395Zm0,0" transform="translate(-65.554 23.429)" fill="#fff235"/>
      <path id="Path_122" data-name="Path 122" d="M192.591,341.719h-.7v.437a.149.149,0,0,0,.149.149h.4a.149.149,0,0,0,.149-.149Zm0,0" transform="translate(-65.554 16.64)" fill="#f6ca14"/>
      <path id="Path_123" data-name="Path 123" d="M274.8,334.528a.3.3,0,0,0-.3-.3h-.477a.293.293,0,0,0-.142.036.283.283,0,0,0-.04.026.3.3,0,0,0-.029.025.3.3,0,0,0-.087.211v1.131a.3.3,0,0,0,.3.3h.477a.3.3,0,0,0,.3-.3Zm0,0" transform="translate(-141.408 23.581)" fill="#a62973"/>
      <path id="Path_124" data-name="Path 124" d="M274.5,334.547h-.477a.3.3,0,0,1-.3-.3v-.982a.3.3,0,0,1,.3-.3h.477a.3.3,0,0,1,.3.3v.982A.3.3,0,0,1,274.5,334.547Zm0,0" transform="translate(-141.408 24.75)" fill="#e7ad27"/>
      <path id="Path_125" data-name="Path 125" d="M274.5,332.512h-.477a.3.3,0,0,1-.3-.3v-.982a.3.3,0,0,1,.3-.3h.477a.3.3,0,0,1,.3.3v.982A.3.3,0,0,1,274.5,332.512Zm0,0" transform="translate(-141.408 26.636)" fill="#fddd3a"/>
      <path id="Path_126" data-name="Path 126" d="M274.5,330.934h-.477a.3.3,0,0,0-.3.3v.059a.3.3,0,0,1,.3-.3h.477a.3.3,0,0,1,.3.3v-.059A.3.3,0,0,0,274.5,330.934Zm0,0" transform="translate(-141.408 26.636)" fill="#fff235"/>
      <path id="Path_127" data-name="Path 127" d="M276.961,334.395h-.4a.149.149,0,0,0-.149.149v.623h.7v-.623A.149.149,0,0,0,276.961,334.395Zm0,0" transform="translate(-143.891 23.429)" fill="#fff235"/>
      <path id="Path_128" data-name="Path 128" d="M277.11,341.719h-.7v.437a.149.149,0,0,0,.149.149h.4a.149.149,0,0,0,.149-.149Zm0,0" transform="translate(-143.891 16.64)" fill="#f6ca14"/>
    </g>
  </g>
</svg>
